<svg width="34" height="34" xmlns="http://www.w3.org/2000/svg" xmlns:xlink="http://www.w3.org/1999/xlink" overflow="hidden"><defs><clipPath id="clip0"><rect x="20" y="195" width="34" height="34"/></clipPath></defs><g clip-path="url(#clip0)" transform="translate(-20 -195)"><path d="M44.4375 225.45 44.4375 200.667 42.6667 200.667 42.6667 198.542 31.3333 198.542 31.3333 200.667 29.5625 200.667 29.5625 225.45 27.0833 225.45 27.0833 226.159 46.9167 226.159 46.9167 225.45ZM32.0417 199.25 41.9583 199.25 41.9583 200.667 32.0417 200.667ZM30.2708 201.375 43.7292 201.375 43.7292 225.45 37.7083 225.45 37.7083 221.562 36.2917 221.562 36.2917 225.45 30.2708 225.45Z" fill="#FFFFFF"/><path d="M32.75 210.938 34.1667 210.938 34.1667 213.062 32.75 213.062Z" fill="#FFFFFF"/><path d="M32.75 207.396 34.1667 207.396 34.1667 209.521 32.75 209.521Z" fill="#FFFFFF"/><path d="M32.75 214.479 34.1667 214.479 34.1667 216.604 32.75 216.604Z" fill="#FFFFFF"/><path d="M32.75 218.021 34.1667 218.021 34.1667 220.146 32.75 220.146Z" fill="#FFFFFF"/><path d="M36.2917 210.938 37.7083 210.938 37.7083 213.062 36.2917 213.062Z" fill="#FFFFFF"/><path d="M36.2917 218.021 37.7083 218.021 37.7083 220.146 36.2917 220.146Z" fill="#FFFFFF"/><path d="M39.8333 221.562 41.25 221.562 41.25 223.688 39.8333 223.688Z" fill="#FFFFFF"/><path d="M39.8333 203.854 41.25 203.854 41.25 205.979 39.8333 205.979Z" fill="#FFFFFF"/><path d="M36.2917 214.479 37.7083 214.479 37.7083 216.604 36.2917 216.604Z" fill="#FFFFFF"/><path d="M36.2917 207.396 37.7083 207.396 37.7083 209.521 36.2917 209.521Z" fill="#FFFFFF"/><path d="M36.2917 203.854 37.7083 203.854 37.7083 205.979 36.2917 205.979Z" fill="#FFFFFF"/><path d="M32.75 203.854 34.1667 203.854 34.1667 205.979 32.75 205.979Z" fill="#FFFFFF"/><path d="M32.75 221.562 34.1667 221.562 34.1667 223.688 32.75 223.688Z" fill="#FFFFFF"/><path d="M39.8333 210.938 41.25 210.938 41.25 213.062 39.8333 213.062Z" fill="#FFFFFF"/><path d="M39.8333 214.479 41.25 214.479 41.25 216.604 39.8333 216.604Z" fill="#FFFFFF"/><path d="M39.8333 218.021 41.25 218.021 41.25 220.146 39.8333 220.146Z" fill="#FFFFFF"/><path d="M39.8333 207.396 41.25 207.396 41.25 209.521 39.8333 209.521Z" fill="#FFFFFF"/></g></svg>