<svg width="35" height="34" xmlns="http://www.w3.org/2000/svg" xmlns:xlink="http://www.w3.org/1999/xlink" overflow="hidden"><defs><clipPath id="clip0"><rect x="19" y="250" width="35" height="34"/></clipPath></defs><g clip-path="url(#clip0)" transform="translate(-19 -250)"><path d="M8.14583 29.0417 8.14583 4.95833 17 4.95833 17 12.3958 25.8542 12.3958 25.8542 29.0417 8.14583 29.0417ZM19.125 5.84375 23.5521 10.2708 19.125 10.2708 19.125 5.84375ZM19.125 2.83333 6.02083 2.83333 6.02083 31.1667 27.9792 31.1667 27.9792 10.625 19.125 2.83333Z" fill="#FFFFFF" transform="matrix(1.02941 0 0 1 19 250)"/><path d="M10.2708 15.9375 23.7292 15.9375 23.7292 17.3542 10.2708 17.3542Z" fill="#FFFFFF" transform="matrix(1.02941 0 0 1 19 250)"/><path d="M10.2708 13.1042 14.875 13.1042 14.875 14.5208 10.2708 14.5208Z" fill="#FFFFFF" transform="matrix(1.02941 0 0 1 19 250)"/><path d="M10.2708 18.7708 23.7292 18.7708 23.7292 20.1875 10.2708 20.1875Z" fill="#FFFFFF" transform="matrix(1.02941 0 0 1 19 250)"/><path d="M10.2708 21.6042 23.7292 21.6042 23.7292 23.0208 10.2708 23.0208Z" fill="#FFFFFF" transform="matrix(1.02941 0 0 1 19 250)"/><path d="M10.2708 24.4375 23.7292 24.4375 23.7292 25.8542 10.2708 25.8542Z" fill="#FFFFFF" transform="matrix(1.02941 0 0 1 19 250)"/></g></svg>