<svg width="35" height="34" xmlns="http://www.w3.org/2000/svg" xmlns:xlink="http://www.w3.org/1999/xlink" overflow="hidden"><defs><clipPath id="clip0"><rect x="19" y="305" width="35" height="34"/></clipPath></defs><g clip-path="url(#clip0)" transform="translate(-19 -305)"><path d="M21.0021 13.2104C19.5146 13.2104 18.3458 12.0063 18.3458 10.5542 18.3458 9.10208 19.55 7.89792 21.0021 7.89792 22.4896 7.89792 23.6583 9.10208 23.6583 10.5542 23.6583 12.0063 22.4542 13.2104 21.0021 13.2104ZM26.9875 8.88958C26.8458 8.39375 26.6688 7.93333 26.4208 7.50833L26.9875 5.84375 25.7125 4.56875 24.0479 5.13542C23.6229 4.8875 23.1625 4.71042 22.6667 4.56875L21.8875 3.01042 20.1167 3.01042 19.3375 4.56875C18.8417 4.71042 18.3813 4.8875 17.9562 5.13542L16.2917 4.56875 15.0167 5.84375 15.5833 7.50833C15.3354 7.93333 15.1583 8.39375 15.0167 8.88958L13.4583 9.66875 13.4583 11.4396 15.0167 12.2188C15.1583 12.7146 15.3354 13.175 15.5833 13.6L15.0167 15.2646 16.2563 16.5042 17.9208 15.9375C18.3458 16.1854 18.8062 16.3625 19.3021 16.5042L20.0812 18.0625 21.8521 18.0625 22.6313 16.5042C23.1271 16.3625 23.5875 16.1854 24.0125 15.9375L25.6771 16.5042 26.9521 15.2646 26.3854 13.6C26.6333 13.175 26.8458 12.6792 26.9875 12.2188L28.5458 11.4396 28.5458 9.66875 26.9875 8.88958Z" fill="#FFFFFF" transform="matrix(1.02941 0 0 1 19 305)"/><path d="M12.9979 26.1021C11.5104 26.1021 10.3417 24.8979 10.3417 23.4458 10.3417 21.9583 11.5458 20.7896 12.9979 20.7896 14.4854 20.7896 15.6542 21.9937 15.6542 23.4458 15.6542 24.8979 14.4854 26.1021 12.9979 26.1021L12.9979 26.1021ZM18.4167 20.4 18.9833 18.7354 17.7083 17.4604 16.0437 18.0271C15.6187 17.7792 15.1229 17.6021 14.6625 17.4604L13.8833 15.9021 12.1125 15.9021 11.3333 17.4604C10.8375 17.6021 10.3771 17.7792 9.95208 18.0271L8.2875 17.4604 7.04792 18.7 7.57917 20.3646C7.33125 20.7896 7.15417 21.2854 7.0125 21.7458L5.45417 22.525 5.45417 24.2958 7.0125 25.075C7.15417 25.5708 7.33125 26.0312 7.57917 26.4562L7.04792 28.1208 8.2875 29.3604 9.95208 28.8292C10.3771 29.0771 10.8375 29.2542 11.3333 29.3958L12.1125 30.9542 13.8833 30.9542 14.6625 29.3958C15.1583 29.2542 15.6187 29.0771 16.0437 28.8292L17.7083 29.3958 18.9479 28.1208 18.4167 26.4917C18.6646 26.0667 18.8417 25.6063 18.9833 25.1104L20.5417 24.3312 20.5417 22.5604 18.9833 21.7812C18.8417 21.2854 18.6646 20.825 18.4167 20.4Z" fill="#FFFFFF" transform="matrix(1.02941 0 0 1 19 305)"/></g></svg>