<svg width="96" height="96" xmlns="http://www.w3.org/2000/svg" xmlns:xlink="http://www.w3.org/1999/xlink" overflow="hidden"><defs><clipPath id="clip0"><rect x="879" y="447" width="96" height="96"/></clipPath></defs><g clip-path="url(#clip0)" transform="translate(-879 -447)"><path d="M929 477 925 477C922.8 477 921 475.2 921 473L921 465C921 462.8 922.8 461 925 461L929 461C931.2 461 933 462.8 933 465L933 473C933 475.2 931.2 477 929 477Z"/><path d="M959 497 935 497 935 493 959 493 959 497ZM959 509 935 509 935 505 959 505 959 509ZM959 521 935 521 935 517 959 517 959 521ZM927 521 895 521 895 513C895 511.8 895.6 510.6 896.6 509.8 898.8 508.2 901.6 506.8 904.4 506 906.6 505.4 908.8 505 911 505 913.4 505 915.6 505.4 917.6 506 920.4 506.8 923.2 508 925.4 509.8 926.4 510.6 927 511.8 927 513L927 521ZM911 487C915.4 487 919 490.6 919 495 919 499.4 915.4 503 911 503 906.6 503 903 499.4 903 495 903 490.6 906.6 487 911 487ZM963 473 937 473C937 477.4 933.4 481 929 481L925 481C920.6 481 917 477.4 917 473L891 473C888.8 473 887 474.8 887 477L887 525C887 527.2 888.8 529 891 529L963 529C965.2 529 967 527.2 967 525L967 477C967 474.8 965.2 473 963 473Z"/></g></svg>