<svg width="96" height="96" xmlns="http://www.w3.org/2000/svg" xmlns:xlink="http://www.w3.org/1999/xlink" overflow="hidden"><defs><clipPath id="clip0"><rect x="579" y="375" width="96" height="96"/></clipPath></defs><g clip-path="url(#clip0)" transform="translate(-579 -375)"><path d="M611 430.686C615.275 430.688 618.742 427.223 618.744 422.948 618.746 418.673 615.281 415.206 611.006 415.204 606.731 415.202 603.264 418.667 603.262 422.942 603.262 422.943 603.262 422.944 603.262 422.945 603.261 427.219 606.725 430.685 610.999 430.686 610.999 430.686 611 430.686 611 430.686ZM611 417.205C614.171 417.203 616.742 419.772 616.744 422.943 616.746 426.114 614.177 428.685 611.006 428.687 607.835 428.689 605.264 426.12 605.262 422.949 605.262 422.948 605.262 422.946 605.262 422.945 605.265 419.777 607.832 417.209 611 417.205Z"/><path d="M625.134 436.825C622.86 435.071 620.255 433.796 617.475 433.077 615.377 432.434 613.195 432.105 611 432.1 608.812 432.136 606.639 432.464 604.538 433.076 601.788 433.875 599.195 435.141 596.875 436.82 595.714 437.734 595.025 439.122 595 440.6L595 448 627 448 627 440.6C626.977 439.125 626.291 437.739 625.134 436.825ZM625 446 597 446 597 440.6C597.019 439.744 597.418 438.941 598.088 438.408 600.209 436.888 602.571 435.736 605.075 435 607.001 434.438 608.994 434.135 611 434.1 613.005 434.107 614.997 434.41 616.913 435 619.438 435.646 621.806 436.797 623.875 438.382 624.564 438.915 624.977 439.729 625 440.6Z"/><path d="M635 422 659 422 659 424 635 424Z"/><path d="M635 430 659 430 659 432 635 432Z"/><path d="M635 438 659 438 659 440 635 440Z"/><path d="M635 446 659 446 659 448 635 448Z"/><path d="M663 401 634 401 634 393C634 390.791 632.209 389 630 389L624 389C621.791 389 620 390.791 620 393L620 401 591 401C588.791 401 587 402.791 587 405L587 453C587 455.209 588.791 457 591 457L663 457C665.209 457 667 455.209 667 453L667 405C667 402.791 665.209 401 663 401ZM622 393C622 391.895 622.895 391 624 391L630 391C631.105 391 632 391.895 632 393L632 404C632 405.105 631.105 406 630 406L624 406C622.895 406 622 405.105 622 404ZM665 453C665 454.105 664.105 455 663 455L591 455C589.895 455 589 454.105 589 453L589 405C589 403.895 589.895 403 591 403L620 403 620 404C620 406.209 621.791 408 624 408L630 408C632.209 408 634 406.209 634 404L634 403 663 403C664.105 403 665 403.895 665 405Z"/></g></svg>