<svg width="35" height="35" xmlns="http://www.w3.org/2000/svg" xmlns:xlink="http://www.w3.org/1999/xlink" overflow="hidden"><defs><clipPath id="clip0"><rect x="19" y="140" width="35" height="35"/></clipPath></defs><g clip-path="url(#clip0)" transform="translate(-19 -140)"><path d="M21.7092 163.333 25.3824 160.79 29.0556 163.333 27.7843 159.095 30.9423 156.349 34.1003 159.095 32.829 163.333 36.5022 160.79 40.1754 163.333 38.9041 159.095 42.0621 156.349 45.2201 159.095 43.9488 163.333 47.622 160.79 51.2952 163.333 50.0235 159.095 53.273 156.27 49.0347 156.27 47.622 152.031 46.2092 156.27 37.9149 156.27 36.5022 152.031 35.0894 156.27 26.7952 156.27 25.3824 152.031 23.9696 156.27 19.7314 156.27 22.9805 159.095ZM46.2092 156.999 46.7346 156.999 46.9008 156.5 47.622 154.337 48.3431 156.5 48.509 156.999 51.3232 156.999 49.5452 158.545 49.1901 158.854 49.3253 159.305 49.9983 161.549 48.0369 160.191 47.622 159.904 47.2067 160.191 45.2453 161.549 45.9186 159.305 46.0539 158.854 45.6988 158.545 43.9207 156.999Z" fill="#FFFFFF"/></g></svg>